G04 ================== begin FILE IDENTIFICATION RECORD ==================*
G04 Layout Name:  C:/WORK_ORCAD/allegro/PULSE MODULATION.brd*
G04 Film Name:    BOTTOM*
G04 File Format:  Gerber RS274X*
G04 File Origin:  Cadence Allegro 17.2-P019*
G04 Origin Date:  Tue Jul 30 16:43:50 2019*
G04 *
G04 Layer:  ETCH/BOTTOM*
G04 Layer:  PIN/BOTTOM*
G04 Layer:  VIA CLASS/BOTTOM*
G04 *
G04 Offset:    (0.000 0.000)*
G04 Mirror:    No*
G04 Mode:      Positive*
G04 Rotation:  0*
G04 FullContactRelief:  No*
G04 UndefLineWidth:     0.000*
G04 ================== end FILE IDENTIFICATION RECORD ====================*
%FSLAX25Y25*MOIN*%
%IR0*IPPOS*OFA0.00000B0.00000*MIA0B0*SFA1.00000B1.00000*%
%ADD11C,.06*%
%ADD13C,.065*%
%ADD12R,.06X.06*%
%ADD17C,.055*%
%ADD16R,.055X.055*%
%ADD15O,.04X.06*%
%ADD14R,.04X.06*%
%ADD10C,.025*%
%ADD18C,.03937*%
%ADD19C,.019685*%
%ADD20C,.094567*%
%ADD22C,.089528*%
%ADD23C,.099528*%
%ADD21C,.104567*%
G75*
%LPD*%
G75*
G36*
G01X33630Y19685D02*
Y33630D01*
X19685D01*
Y63449D01*
G03X22720Y64480I2J4977D01*
G01X32559D01*
X38945Y70866D01*
Y138366D01*
X56445Y155866D01*
Y164465D01*
G03X54331Y172126I-3945J3034D01*
G02Y172874I149J374D01*
G03Y182126I-1831J4626D01*
G02Y182874I149J374D01*
G03X55043Y191776I-1832J4626D01*
G02X55248Y192524I204J346D01*
G01X55500D01*
G03X57476Y194500I0J1976D01*
G01Y200500D01*
G03X55500Y202476I-1976J0D01*
G01X49500D01*
G03X47764Y201445I0J-1977D01*
G01X40866D01*
X31055Y191634D01*
Y154134D01*
X20370Y143449D01*
G02X19685Y143732I-284J284D01*
G01Y152689D01*
G03Y161642I0J4476D01*
G01Y162189D01*
G03X21516Y171791I0J4976D01*
G02Y172539I149J374D01*
G03X19685Y182142I-1831J4627D01*
G01Y241961D01*
X33630D01*
Y255906D01*
X360071D01*
Y241961D01*
X374016D01*
Y132587D01*
G03Y123634I0J-4476D01*
G01Y123087D01*
G03Y113134I0J-4976D01*
G01Y33630D01*
X360071D01*
Y19685D01*
X33630D01*
G37*
G36*
G01X22720Y72370D02*
G03X19685Y73402I-3034J-3945D01*
G01Y73949D01*
G03Y82902I0J4476D01*
G01Y83449D01*
G03X21516Y93051I0J4976D01*
G02Y93799I149J374D01*
G03X23630Y101461I-1830J4627D01*
G01Y135551D01*
X38945Y150866D01*
Y188366D01*
X44134Y193555D01*
X47764D01*
G03X49500Y192524I1736J945D01*
G01X49752D01*
G02X49957Y191776I0J-402D01*
G03X50669Y182874I2544J-4276D01*
G02Y182126I-149J-374D01*
G03Y172874I1831J-4626D01*
G02Y172126I-149J-374D01*
G03X48555Y164465I1830J-4627D01*
G01Y159134D01*
X31055Y141634D01*
Y74134D01*
X29291Y72370D01*
X22720D01*
G37*
%LPC*%
G75*
G36*
G01X169626Y65669D02*
G02X162039Y71500I-4627J1831D01*
G01Y76228D01*
X166272Y80461D01*
X176807D01*
X177039Y80693D01*
Y92378D01*
G03X176516Y92760I-401J0D01*
G02X170374Y95669I-1515J4740D01*
G03X169626I-374J-149D01*
G02X160374I-4626J1831D01*
G03X159626I-374J-149D01*
G02X150374I-4626J1831D01*
G03X149626I-374J-149D01*
G02Y99331I-4626J1831D01*
G03X150374I374J149D01*
G02X159626I4626J-1831D01*
G03X160374I374J149D01*
G02X162039Y101500I4628J-1829D01*
G01Y145689D01*
G02X167961I2961J4311D01*
G01Y141319D01*
G03X168657Y141043I402J-2D01*
G02X176811Y140461I3844J-3543D01*
G01X179256D01*
X180370Y139350D01*
G03X181055Y139634I284J283D01*
G01Y181965D01*
G02X180374Y183169I3949J3028D01*
G03X179626I-374J-149D01*
G02X170374I-4626J1831D01*
G03X169626I-374J-149D01*
G02X163484Y180260I-4627J1830D01*
G03X162961Y179878I-122J-382D01*
G01Y171224D01*
X163114Y171071D01*
G03X163689Y171083I282J286D01*
G02X163189Y164539I3810J-3582D01*
G01X161276D01*
X157039Y168776D01*
Y201224D01*
X161276Y205461D01*
X168776D01*
X172039Y208724D01*
Y211000D01*
G02X170374Y213169I2962J3998D01*
G03X169626I-374J-149D01*
G02Y216831I-4626J1831D01*
G03X170374I374J149D01*
G02X179626I4626J-1831D01*
G03X180374I374J149D01*
G02X182039Y219000I4628J-1829D01*
G01Y223189D01*
G02X187961I2961J4311D01*
G01Y219000D01*
G02X189276Y217543I-2964J-3997D01*
G03X190024Y217748I346J204D01*
G01Y218000D01*
G02X192000Y219976I1976J0D01*
G01X198000D01*
G02X199976Y218000I0J-1976D01*
G01Y212000D01*
G02X198000Y210024I-1976J0D01*
G01X192000D01*
G02X190024Y212000I0J1976D01*
G01Y212252D01*
G03X189276Y212457I-402J0D01*
G02X180374Y213169I-4276J2544D01*
G03X179626I-374J-149D01*
G02X177961Y211000I-4628J1829D01*
G01Y206276D01*
X171224Y199539D01*
X163724D01*
X162961Y198776D01*
Y190122D01*
G03X163484Y189740I401J0D01*
G02X169626Y186831I1515J-4740D01*
G03X170374I374J149D01*
G02X179626I4626J-1831D01*
G03X180374I374J149D01*
G02X189626I4626J-1831D01*
G03X190374I374J149D01*
G02Y183169I4626J-1831D01*
G03X189626I-374J-149D01*
G02X188945Y181965I-4630J1823D01*
G01Y142165D01*
G03X189571Y141831I401J-2D01*
G02Y133169I2929J-4331D01*
G03X188945Y132835I-225J-333D01*
G01Y69803D01*
X182697Y63555D01*
X178035D01*
G02X170374Y65669I-3034J3945D01*
G03X169626I-374J-149D01*
G37*
G36*
G01X245043Y191776D02*
G02X238500Y184539I-2543J-4277D01*
G01X228776D01*
X222039Y191276D01*
Y223189D01*
G02X227961I2961J4311D01*
G01Y193724D01*
X231224Y190461D01*
X238500D01*
G02X239957Y191776I3997J-2964D01*
G03X239752Y192524I-204J346D01*
G01X239500D01*
G02X237524Y194500I0J1976D01*
G01Y200500D01*
G02X239500Y202476I1976J0D01*
G01X245500D01*
G02X247476Y200500I0J-1976D01*
G01Y194500D01*
G02X245500Y192524I-1976J0D01*
G01X245248D01*
G03X245043Y191776I0J-402D01*
G37*
G36*
G01X274331Y172126D02*
G02X270669I-1831J-4626D01*
G03Y172874I-149J374D01*
G02Y182126I1831J4626D01*
G03Y182874I-149J374D01*
G02Y192126I1831J4626D01*
G03Y192874I-149J374D01*
G02X274331I1831J4626D01*
G03Y192126I149J-374D01*
G02Y182874I-1831J-4626D01*
G03Y182126I149J-374D01*
G02Y172874I-1831J-4626D01*
G03Y172126I149J-374D01*
G37*
G36*
G01X84331D02*
G02X80669I-1831J-4626D01*
G03Y172874I-149J374D01*
G02X84331I1831J4626D01*
G03Y172126I149J-374D01*
G37*
G36*
G01X69626Y85669D02*
G02X61055Y90535I-4627J1831D01*
G01Y114067D01*
G02Y120933I3945J3433D01*
G01Y129465D01*
G02X60075Y131791I3946J3032D01*
G01X60067Y131854D01*
X54354Y137567D01*
X54291Y137575D01*
G02X59925Y143209I709J4925D01*
G01X59933Y143146D01*
X65646Y137433D01*
X65709Y137425D01*
G02X68945Y129465I-708J-4926D01*
G01Y120933D01*
G02Y114067I-3945J-3433D01*
G01Y90535D01*
G02X69626Y89331I-3949J-3028D01*
G03X70374I374J149D01*
G02X79626I4626J-1831D01*
G03X80374I374J149D01*
G02X82039Y91500I4628J-1829D01*
G01Y103724D01*
X89539Y111224D01*
Y136224D01*
X96512Y143201D01*
G02X96024Y144500I1485J1299D01*
G01Y150500D01*
G02X98000Y152476I1976J0D01*
G01X102000D01*
G02X103220Y152055I0J-1979D01*
G02X107500Y151591I1779J-3555D01*
G02X113976Y148500I2501J-3091D01*
G01Y146500D01*
G02X108512Y142811I-3977J0D01*
G03X107961Y142441I-150J-372D01*
G01Y121811D01*
G02X102039I-2961J-4311D01*
G01Y139382D01*
G03X101354Y139665I-401J0D01*
G01X95461Y133776D01*
Y108776D01*
X87961Y101276D01*
Y91500D01*
G02X89626Y89331I-2962J-3998D01*
G03X90374I374J149D01*
G02Y85669I4626J-1831D01*
G03X89626I-374J-149D01*
G02X80374I-4626J1831D01*
G03X79626I-374J-149D01*
G02X70374I-4626J1831D01*
G03X69626I-374J-149D01*
G37*
G36*
G01X79626Y55669D02*
G02Y59331I-4626J1831D01*
G03X80374I374J149D01*
G02X89626I4626J-1831D01*
G03X90374I374J149D01*
G02Y55669I4626J-1831D01*
G03X89626I-374J-149D01*
G02X80374I-4626J1831D01*
G03X79626I-374J-149D01*
G37*
G36*
G01X235461Y133189D02*
Y116500D01*
G02X231862Y107563I-2960J-4001D01*
G01X231764Y107579D01*
X227421Y103236D01*
X227437Y103138D01*
G02X223138Y107437I-4937J-638D01*
G01X223236Y107421D01*
X227579Y111764D01*
X227563Y111862D01*
G02X229539Y116500I4936J637D01*
G01Y133189D01*
G02X235461I2961J4311D01*
G37*
G36*
G01X137961Y195689D02*
Y153776D01*
X135461Y151276D01*
Y141811D01*
G02X129539I-2961J-4311D01*
G01Y153724D01*
X132039Y156224D01*
Y163681D01*
G03X131343Y163957I-402J2D01*
G02Y171043I-3843J3543D01*
G03X132039Y171319I295J273D01*
G01Y195689D01*
G02X137961I2961J4311D01*
G37*
G36*
G01X60524Y54500D02*
Y60500D01*
G02X62000Y61976I1476J0D01*
G01X68000D01*
G02X69476Y60500I0J-1476D01*
G01Y54500D01*
G02X68000Y53024I-1476J0D01*
G01X62000D01*
G02X60524Y54500I0J1476D01*
G37*
G36*
G01X140024Y64500D02*
Y70500D01*
G02X142000Y72476I1976J0D01*
G01X148000D01*
G02X149976Y70500I0J-1976D01*
G01Y64500D01*
G02X148000Y62524I-1976J0D01*
G01X142000D01*
G02X140024Y64500I0J1976D01*
G37*
G36*
G01X297772Y137252D02*
Y142748D01*
G02X299748Y144724I1976J0D01*
G01X305252D01*
G02X307228Y142748I0J-1976D01*
G01Y137252D01*
G02X305252Y135276I-1976J0D01*
G01X299748D01*
G02X297772Y137252I0J1976D01*
G37*
G54D20*
X357500Y137500D03*
X302500Y176000D03*
X115000Y200000D03*
Y227500D03*
Y177500D03*
X122500Y67500D03*
X107500D03*
G54D22*
X242500Y177500D03*
X155000Y67500D03*
X82500Y187500D03*
G54D23*
X242500Y167500D03*
X222500Y122500D03*
X82500Y197500D03*
X65000Y152500D03*
G54D21*
X317500Y137500D03*
X205000Y150000D03*
X155000Y227500D03*
X122500Y107500D03*
X95000Y177500D03*
X107500Y87500D03*
%LPD*%
G75*
G36*
G01X169626Y69331D02*
G03X167961Y71500I-4628J-1829D01*
G01Y73780D01*
X168720Y74539D01*
X179256D01*
X180370Y75650D01*
G02X181055Y75366I284J-283D01*
G01Y73071D01*
X179429Y71445D01*
X178035D01*
X177980Y71484D01*
G03X170374Y69331I-2980J-3985D01*
G02X169626I-374J149D01*
G37*
G36*
G01Y99331D02*
G03X167961Y101500I-4628J-1829D01*
G01Y133681D01*
G02X168657Y133957I402J2D01*
G03X176673Y134350I3843J3544D01*
G01X176681Y134362D01*
X176831Y134512D01*
X177039Y134307D01*
Y102622D01*
G02X176516Y102240I-401J0D01*
G03X170374Y99331I-1515J-4740D01*
G02X169626I-374J149D01*
G37*
G54D10*
X23622Y23622D03*
Y251969D03*
X370079Y23622D03*
Y251969D03*
G54D11*
X19685Y68425D03*
Y78425D03*
Y88425D03*
Y98425D03*
Y157165D03*
Y167165D03*
Y177165D03*
X75000Y57500D03*
Y87500D03*
X65000D03*
Y132500D03*
X52500Y167500D03*
X55000Y142500D03*
X65000Y152500D03*
X52500Y177500D03*
Y187500D03*
X95000Y57500D03*
X85000D03*
X95000Y87500D03*
X85000D03*
X82500Y167500D03*
Y177500D03*
Y187500D03*
Y197500D03*
X165000Y67500D03*
X155000D03*
X165000Y97500D03*
X155000D03*
X145000D03*
X165000Y185000D03*
Y215000D03*
X175000Y67500D03*
Y97500D03*
Y185000D03*
X185000D03*
X195000D03*
X175000Y215000D03*
X185000D03*
X222500Y102500D03*
Y122500D03*
X232500Y112500D03*
X242500Y167500D03*
Y177500D03*
Y187500D03*
X272500Y167500D03*
Y177500D03*
Y187500D03*
Y197500D03*
X374016Y128110D03*
Y118110D03*
G54D12*
X65000Y57500D03*
X52500Y197500D03*
X145000Y67500D03*
X195000Y215000D03*
X242500Y197500D03*
G54D13*
X65000Y117500D03*
X107500Y67500D03*
Y87500D03*
X105000Y117500D03*
X95000Y177500D03*
X122500Y67500D03*
Y107500D03*
X132500Y137500D03*
X127500Y167500D03*
X115000Y177500D03*
Y227500D03*
Y200000D03*
X135000D03*
X165000Y150000D03*
X167500Y167500D03*
X155000Y227500D03*
X192500Y137500D03*
X172500D03*
X185000Y227500D03*
X205000Y150000D03*
X225000Y227500D03*
X232500Y137500D03*
X317500D03*
X357500D03*
G54D14*
X100000Y147500D03*
G54D15*
X105000D03*
X110000D03*
G54D16*
X302500Y140000D03*
G54D17*
Y176000D03*
G54D18*
G01X19685Y157165D02*
X13937D01*
X10000Y153228D01*
Y82504D01*
X14079Y78425D01*
X19685D01*
G01X52500Y167500D02*
Y157500D01*
X35000Y140000D01*
Y72500D01*
X30925Y68425D01*
X19685D01*
G01X52500Y197500D02*
X42500D01*
X35000Y190000D01*
Y152500D01*
X19685Y137185D01*
Y98425D01*
G01X65000Y87500D02*
Y117500D01*
G01Y132500D02*
X55000Y142500D01*
G01X65000Y117500D02*
Y132500D01*
G01X115000Y177500D02*
Y200000D01*
G01X185000Y185000D02*
Y71437D01*
X181063Y67500D01*
X175000D01*
G54D19*
G01X19685Y73748D02*
Y78425D01*
G01D02*
Y83102D01*
G01Y78425D02*
X24362D01*
G01X19685Y152488D02*
Y157165D01*
G01D02*
Y161843D01*
G01Y157165D02*
X24362D01*
G01X65000Y52823D02*
Y57500D01*
G01D02*
Y62177D01*
G01X60323Y57500D02*
X65000D01*
G01D02*
X69677D01*
G01X102571Y67500D02*
X107500D01*
G01X85000Y87500D02*
Y102500D01*
X92500Y110000D01*
Y135000D01*
X100000Y142500D01*
Y147500D01*
G01X82500Y182823D02*
Y187500D01*
G01D02*
Y192177D01*
G01X77823Y187500D02*
X82500D01*
G01D02*
X87177D01*
G01X122500Y62571D02*
Y67500D01*
G01D02*
Y72429D01*
G01X117571Y67500D02*
X122500D01*
G01D02*
X127429D01*
G01X107500Y62571D02*
Y67500D01*
G01D02*
Y72429D01*
G01Y67500D02*
X112429D01*
G01X105000Y117500D02*
Y147500D01*
G01X135000Y200000D02*
Y155000D01*
X132500Y152500D01*
Y137500D01*
G01X115000Y172571D02*
Y177500D01*
G01X110071D02*
X115000D01*
G01D02*
X119929D01*
G01X115000Y200000D02*
Y204929D01*
G01X110071Y200000D02*
X115000D01*
G01D02*
X119929D01*
G01X115000Y222571D02*
Y227500D01*
G01D02*
Y232429D01*
G01X110071Y227500D02*
X115000D01*
G01D02*
X119929D01*
G01X155000Y62823D02*
Y67500D01*
G01D02*
Y72177D01*
G01X150323Y67500D02*
X155000D01*
G01D02*
X159677D01*
G01X175000Y215000D02*
Y207500D01*
X170000Y202500D01*
X162500D01*
X160000Y200000D01*
Y170000D01*
X162500Y167500D01*
X167500D01*
G01X165000Y67500D02*
Y75004D01*
X167496Y77500D01*
X178031D01*
X180000Y79469D01*
Y135531D01*
X178031Y137500D01*
X172500D01*
G01X165000Y97500D02*
Y150000D01*
G01X185000Y227500D02*
Y215000D01*
G01X222500Y102500D02*
X232500Y112500D01*
G01Y137500D02*
Y112500D01*
G01X242500Y172823D02*
Y177500D01*
G01D02*
Y182177D01*
G01X237823Y177500D02*
X242500D01*
G01D02*
X247177D01*
G01X225000Y227500D02*
Y192500D01*
X230000Y187500D01*
X242500D01*
G01X374016Y123433D02*
Y128110D01*
G01D02*
Y132787D01*
G01X369339Y128110D02*
X374016D01*
G01X357500Y132571D02*
Y137500D01*
G01D02*
Y142429D01*
G01X352571Y137500D02*
X357500D01*
G01D02*
X362429D01*
M02*
