G04 ================== begin FILE IDENTIFICATION RECORD ==================*
G04 Layout Name:  C:/WORK_ORCAD/allegro/PULSE MODULATION.brd*
G04 Film Name:    DrillDraw*
G04 File Format:  Gerber RS274X*
G04 File Origin:  Cadence Allegro 17.2-P019*
G04 Origin Date:  Tue Jul 30 16:43:50 2019*
G04 *
G04 Layer:  BOARD GEOMETRY/OUTLINE*
G04 *
G04 Offset:    (0.000 0.000)*
G04 Mirror:    No*
G04 Mode:      Positive*
G04 Rotation:  0*
G04 FullContactRelief:  No*
G04 UndefLineWidth:     0.100*
G04 ================== end FILE IDENTIFICATION RECORD ====================*
%FSLAX25Y25*MOIN*%
%IR0*IPPOS*OFA0.00000B0.00000*MIA0B0*SFA1.00000B1.00000*%
%ADD10C,.015748*%
G75*
%LPD*%
G75*
G54D10*
G01X145780Y12500D02*
X143157D01*
Y28248D01*
X145780D01*
G01X144732Y20638D02*
X143157D01*
G01X153130Y12500D02*
Y28248D01*
G01X160807Y19587D02*
X162906D01*
X162709Y21425D01*
X162382Y22472D01*
X161921Y23000D01*
X161465Y22736D01*
X161071Y21949D01*
X160807Y20110D01*
X160677Y18535D01*
Y16961D01*
X160807Y15386D01*
X161134Y13811D01*
X161528Y12764D01*
X161988Y12500D01*
X162449Y13024D01*
X162906Y14598D01*
G01X171504Y21685D02*
X171043Y22736D01*
X170650Y23000D01*
X170126Y22472D01*
X169732Y21425D01*
X169469Y19587D01*
X169402Y17748D01*
X169469Y15913D01*
X169732Y14339D01*
X170126Y13024D01*
X170650Y12500D01*
X171110Y13024D01*
X171504Y14075D01*
G01X179114Y28248D02*
Y12500D01*
G01X178197Y23000D02*
X180031D01*
G01X186858Y12500D02*
Y23000D01*
G01Y20898D02*
X187185Y21949D01*
X187512Y22736D01*
X187972Y23000D01*
X188299Y22736D01*
X188693Y21949D01*
G01X196437Y12500D02*
X196043Y12764D01*
X195650Y13811D01*
X195386Y15650D01*
X195256Y17748D01*
X195386Y19850D01*
X195650Y21685D01*
X196043Y22736D01*
X196437Y23000D01*
X196831Y22736D01*
X197224Y21685D01*
X197488Y19850D01*
X197551Y17748D01*
X197488Y15650D01*
X197224Y13811D01*
X196831Y12764D01*
X196437Y12500D01*
G01X203984D02*
Y23000D01*
G01Y20374D02*
X204244Y21685D01*
X204638Y22736D01*
X205165Y23000D01*
X205622Y22736D01*
X206016Y21685D01*
X206213Y19850D01*
Y12500D01*
G01X213760Y23000D02*
Y12500D01*
G01Y27197D02*
X213630Y27461D01*
Y27984D01*
X213760Y28248D01*
X213890Y27984D01*
Y27461D01*
X213760Y27197D01*
G01X223472Y21685D02*
X223012Y22736D01*
X222618Y23000D01*
X222094Y22472D01*
X221701Y21425D01*
X221437Y19587D01*
X221370Y17748D01*
X221437Y15913D01*
X221701Y14339D01*
X222094Y13024D01*
X222618Y12500D01*
X223079Y13024D01*
X223472Y14075D01*
G01X241189Y26937D02*
X240795Y27724D01*
X240335Y28248D01*
X239811D01*
X239220Y27461D01*
X238760Y26150D01*
X238433Y24575D01*
X238169Y21949D01*
X238102Y19587D01*
X238236Y17224D01*
X238433Y15650D01*
X238827Y14075D01*
X239283Y13024D01*
X239744Y12500D01*
X240205D01*
X240661Y13024D01*
X241055Y13811D01*
X241386Y14862D01*
G01X246764Y12500D02*
X248406Y28248D01*
X250047Y12500D01*
G01X249457Y18012D02*
X247354D01*
G01X255622Y12500D02*
Y28248D01*
X256937D01*
X257461Y27461D01*
X257854Y26409D01*
X258181Y24835D01*
X258445Y23000D01*
X258512Y20374D01*
X258445Y17748D01*
X258181Y15913D01*
X257854Y14339D01*
X257461Y13287D01*
X256937Y12500D01*
X255622D01*
G01X138157Y250000D02*
Y265748D01*
X139732D01*
X140256Y264961D01*
X140650Y263122D01*
X140780Y261024D01*
X140650Y258925D01*
X140323Y257350D01*
X139732Y256563D01*
X138157D01*
G01X146685Y265748D02*
Y254461D01*
X146949Y252098D01*
X147472Y250524D01*
X148130Y250000D01*
X148787Y250524D01*
X149311Y252098D01*
X149575Y254461D01*
Y265748D01*
G01X155480D02*
Y250000D01*
X158102D01*
G01X164075Y252098D02*
X164598Y250787D01*
X165189Y250000D01*
X165717D01*
X166240Y250787D01*
X166634Y252098D01*
X166831Y253937D01*
X166701Y255776D01*
X166370Y257350D01*
X165780Y258398D01*
X164992Y258925D01*
X164535Y259972D01*
X164339Y261811D01*
X164469Y263650D01*
X164795Y264961D01*
X165256Y265748D01*
X165717D01*
X166173Y265224D01*
X166567Y263909D01*
G01X175425Y250000D02*
X172803D01*
Y265748D01*
X175425D01*
G01X174378Y258138D02*
X172803D01*
G01X189732Y250000D02*
Y265748D01*
X191437Y252626D01*
X193142Y265748D01*
Y250000D01*
G01X200098D02*
X199575Y250264D01*
X199114Y251311D01*
X198720Y252886D01*
X198457Y254724D01*
X198327Y256823D01*
Y258925D01*
X198457Y261024D01*
X198720Y262862D01*
X199114Y264437D01*
X199575Y265484D01*
X200098Y265748D01*
X200622Y265484D01*
X201083Y264437D01*
X201476Y262862D01*
X201740Y261024D01*
X201870Y258925D01*
Y256823D01*
X201740Y254724D01*
X201476Y252886D01*
X201083Y251311D01*
X200622Y250264D01*
X200098Y250000D01*
G01X207315D02*
Y265748D01*
X208630D01*
X209154Y264961D01*
X209547Y263909D01*
X209874Y262335D01*
X210138Y260500D01*
X210205Y257874D01*
X210138Y255248D01*
X209874Y253413D01*
X209547Y251839D01*
X209154Y250787D01*
X208630Y250000D01*
X207315D01*
G01X215976Y265748D02*
Y254461D01*
X216240Y252098D01*
X216764Y250524D01*
X217421Y250000D01*
X218079Y250524D01*
X218602Y252098D01*
X218866Y254461D01*
Y265748D01*
G01X224772D02*
Y250000D01*
X227394D01*
G01X233102D02*
X234744Y265748D01*
X236386Y250000D01*
G01X235795Y255512D02*
X233693D01*
G01X243406Y265748D02*
Y250000D01*
G01X241898Y265748D02*
X244913D01*
G01X251280D02*
X252854D01*
G01X252067D02*
Y250000D01*
G01X251280D02*
X252854D01*
G01X260728D02*
X260205Y250264D01*
X259744Y251311D01*
X259350Y252886D01*
X259087Y254724D01*
X258957Y256823D01*
Y258925D01*
X259087Y261024D01*
X259350Y262862D01*
X259744Y264437D01*
X260205Y265484D01*
X260728Y265748D01*
X261252Y265484D01*
X261713Y264437D01*
X262106Y262862D01*
X262370Y261024D01*
X262500Y258925D01*
Y256823D01*
X262370Y254724D01*
X262106Y252886D01*
X261713Y251311D01*
X261252Y250264D01*
X260728Y250000D01*
G01X267882D02*
Y265748D01*
X270898Y250000D01*
Y265748D01*
M02*
