G04 ================== begin FILE IDENTIFICATION RECORD ==================*
G04 Layout Name:  C:/WORK_ORCAD/allegro/PULSE MODULATION.brd*
G04 Film Name:    SilkTop*
G04 File Format:  Gerber RS274X*
G04 File Origin:  Cadence Allegro 17.2-P019*
G04 Origin Date:  Tue Jul 30 16:43:50 2019*
G04 *
G04 Layer:  REF DES/SILKSCREEN_TOP*
G04 Layer:  PACKAGE GEOMETRY/SILKSCREEN_TOP*
G04 Layer:  BOARD GEOMETRY/SILKSCREEN_TOP*
G04 *
G04 Offset:    (0.000 0.000)*
G04 Mirror:    No*
G04 Mode:      Positive*
G04 Rotation:  0*
G04 FullContactRelief:  No*
G04 UndefLineWidth:     0.200*
G04 ================== end FILE IDENTIFICATION RECORD ====================*
%FSLAX25Y25*MOIN*%
%IR0*IPPOS*OFA0.00000B0.00000*MIA0B0*SFA1.00000B1.00000*%
%ADD10C,.007992*%
%ADD11C,.007874*%
G75*
%LPD*%
G75*
G54D10*
G01X97579Y140079D02*
X112421D01*
G01X105000Y157988D02*
X100988Y157189D01*
G01D02*
X97579Y154921D01*
G01D02*
X95311Y151512D01*
G01D02*
X94512Y147500D01*
G01D02*
X95311Y143488D01*
G01D02*
X97579Y140079D01*
G01D02*
X97661Y140000D01*
G01X112421Y140079D02*
X114689Y143488D01*
G01D02*
X115488Y147500D01*
G01D02*
X114689Y151512D01*
G01D02*
X112421Y154921D01*
G01D02*
X109012Y157189D01*
G01D02*
X105000Y157988D01*
G54D11*
G01X14685Y103425D02*
X24685D01*
Y63425D01*
X14685D01*
Y103425D01*
G01X26886Y102941D02*
X26386Y102626D01*
X26051Y102244D01*
X25886Y101803D01*
X26051Y101295D01*
X26386Y100913D01*
X26886Y100535D01*
X27551Y100409D01*
X30886D01*
G01X25886Y96579D02*
X30886D01*
X29886Y97339D01*
G01X25886D02*
Y95819D01*
G01X14685Y182165D02*
X24685D01*
Y152165D01*
X14685D01*
Y182165D01*
G01X28571Y181059D02*
X28264Y180866D01*
X28055Y180638D01*
X27953Y180366D01*
X28055Y180063D01*
X28264Y179831D01*
X28571Y179602D01*
X28984Y179524D01*
X31051D01*
G01X30535Y177921D02*
X30846Y177693D01*
X31000Y177421D01*
X31051Y177118D01*
X30949Y176732D01*
X30689Y176465D01*
X30378Y176390D01*
X30071Y176425D01*
X29811Y176579D01*
X29295Y177346D01*
X28933Y177693D01*
X28417Y177921D01*
X27953Y177996D01*
Y176390D01*
G01X60000Y61500D02*
Y67500D01*
X62500Y70000D01*
Y75000D01*
X60000Y77500D01*
Y83500D01*
X100000D01*
Y61500D01*
X60000D01*
G01X65701Y93157D02*
X69283D01*
X70035Y93409D01*
X70535Y93917D01*
X70701Y94547D01*
X70535Y95181D01*
X70035Y95689D01*
X69283Y95941D01*
X65701D01*
G01X70701Y99646D02*
X65701D01*
X66701Y98886D01*
G01X70701D02*
Y100406D01*
G01X50000Y130000D02*
Y155000D01*
X70000D01*
Y130000D01*
X50000D01*
G01X71000Y122500D02*
X99000D01*
Y112500D01*
X71000D01*
Y122500D01*
G01X56500Y202500D02*
X62500D01*
X65000Y200000D01*
X70000D01*
X72500Y202500D01*
X78500D01*
Y162500D01*
X56500D01*
Y202500D01*
G01X47933Y156201D02*
Y161201D01*
X49516D01*
X50024Y160949D01*
X50339Y160618D01*
X50465Y159949D01*
X50339Y159283D01*
X49961Y158866D01*
X49516Y158618D01*
X47933D01*
G01X49516D02*
X50465Y156201D01*
G01X54295D02*
Y161201D01*
X53535Y160201D01*
G01Y156201D02*
X55055D01*
G01X58193Y160366D02*
X58571Y160866D01*
X59016Y161118D01*
X59524Y161201D01*
X60157Y161035D01*
X60598Y160618D01*
X60724Y160118D01*
X60661Y159618D01*
X60409Y159201D01*
X59142Y158366D01*
X58571Y157783D01*
X58193Y156949D01*
X58067Y156201D01*
X60724D01*
G01X98657Y65417D02*
X99035Y65165D01*
X99480Y65000D01*
X99984D01*
X100555Y65252D01*
X101000Y65665D01*
X101315Y66165D01*
X101571Y67000D01*
X101634Y67752D01*
X101504Y68500D01*
X101315Y69000D01*
X100937Y69500D01*
X100492Y69835D01*
X100051Y70000D01*
X99606D01*
X99161Y69835D01*
X98783Y69583D01*
X98465Y69252D01*
G01X94953Y70000D02*
Y65000D01*
X95713Y66000D01*
G01Y70000D02*
X94193D01*
G01X112500Y92500D02*
Y62500D01*
X102500D01*
Y92500D01*
X112500D01*
G01X96909Y131098D02*
X96161Y131224D01*
X95512Y131724D01*
X94949Y132472D01*
X94575Y133346D01*
X94390Y134346D01*
Y135350D01*
X94575Y136350D01*
X94949Y137224D01*
X95512Y137972D01*
X96161Y138472D01*
X96909Y138598D01*
X97657Y138472D01*
X98307Y137972D01*
X98870Y137224D01*
X99244Y136350D01*
X99429Y135350D01*
Y134346D01*
X99244Y133346D01*
X98870Y132472D01*
X98307Y131724D01*
X97657Y131224D01*
X96909Y131098D01*
G01X97657Y133098D02*
X98776Y131098D01*
G01X104409D02*
Y138598D01*
X103291Y137098D01*
G01Y131098D02*
X105528D01*
G01X89500Y111618D02*
X92598D01*
Y110657D01*
X92445Y110350D01*
X92236Y110161D01*
X91823Y110083D01*
X91409Y110161D01*
X91154Y110390D01*
X90996Y110657D01*
Y111618D01*
G01Y110657D02*
X89500Y110083D01*
G01X90118Y108594D02*
X89760Y108366D01*
X89551Y108059D01*
X89500Y107713D01*
X89551Y107406D01*
X89811Y107102D01*
X90118Y106909D01*
X90429Y106870D01*
X90791Y106949D01*
X91047Y107217D01*
X91154Y107484D01*
Y107827D01*
G01Y107484D02*
X91307Y107252D01*
X91567Y107063D01*
X91874Y106984D01*
X92185Y107063D01*
X92445Y107252D01*
X92598Y107598D01*
X92547Y107945D01*
X92339Y108287D01*
G01X88157Y196799D02*
Y193217D01*
X88409Y192465D01*
X88917Y191965D01*
X89547Y191799D01*
X90181Y191965D01*
X90689Y192465D01*
X90941Y193217D01*
Y196799D01*
G01X93256Y192799D02*
X93634Y192217D01*
X94142Y191882D01*
X94713Y191799D01*
X95217Y191882D01*
X95724Y192299D01*
X96039Y192799D01*
X96102Y193299D01*
X95976Y193882D01*
X95535Y194299D01*
X95091Y194465D01*
X94520D01*
G01X95091D02*
X95472Y194717D01*
X95787Y195134D01*
X95913Y195634D01*
X95787Y196134D01*
X95472Y196547D01*
X94902Y196799D01*
X94331Y196717D01*
X93760Y196382D01*
G01X90000Y182500D02*
X120000D01*
Y172500D01*
X90000D01*
Y182500D01*
G01X116618Y83000D02*
Y79902D01*
X115657D01*
X115350Y80055D01*
X115161Y80264D01*
X115083Y80677D01*
X115161Y81091D01*
X115390Y81346D01*
X115657Y81504D01*
X116618D01*
G01X115657D02*
X115083Y83000D01*
G01X113480Y81709D02*
X113213Y81346D01*
X112980Y81142D01*
X112677Y81039D01*
X112406Y81142D01*
X112217Y81346D01*
X112063Y81657D01*
X112024Y82020D01*
X112063Y82327D01*
X112217Y82638D01*
X112445Y82898D01*
X112713Y83000D01*
X113020Y82898D01*
X113287Y82587D01*
X113441Y82122D01*
X113480Y81606D01*
X113402Y80933D01*
X113287Y80575D01*
X113098Y80213D01*
X112827Y79953D01*
X112559Y79902D01*
X112291Y80004D01*
X112102Y80264D01*
G01X127500Y101500D02*
Y73500D01*
X117500D01*
Y101500D01*
X127500D01*
G01X117083Y168657D02*
X117335Y169035D01*
X117500Y169480D01*
Y169984D01*
X117248Y170555D01*
X116835Y171000D01*
X116335Y171315D01*
X115500Y171571D01*
X114748Y171634D01*
X114000Y171504D01*
X113500Y171315D01*
X113000Y170937D01*
X112665Y170492D01*
X112500Y170051D01*
Y169606D01*
X112665Y169161D01*
X112917Y168783D01*
X113248Y168465D01*
G01X113500Y166343D02*
X112917Y165965D01*
X112583Y165457D01*
X112500Y164886D01*
X112583Y164382D01*
X113000Y163874D01*
X113500Y163559D01*
X114000Y163496D01*
X114583Y163622D01*
X115000Y164063D01*
X115165Y164508D01*
Y165079D01*
G01Y164508D02*
X115417Y164126D01*
X115835Y163811D01*
X116335Y163685D01*
X116835Y163811D01*
X117248Y164126D01*
X117500Y164697D01*
X117417Y165268D01*
X117083Y165839D01*
G01X121000Y232500D02*
X149000D01*
Y222500D01*
X121000D01*
Y232500D01*
G01X111953Y209472D02*
X111701Y209094D01*
X111535Y208650D01*
Y208146D01*
X111787Y207575D01*
X112201Y207130D01*
X112701Y206815D01*
X113535Y206559D01*
X114287Y206496D01*
X115035Y206626D01*
X115535Y206815D01*
X116035Y207193D01*
X116370Y207638D01*
X116535Y208079D01*
Y208524D01*
X116370Y208969D01*
X116118Y209346D01*
X115787Y209665D01*
G01X112370Y211976D02*
X111870Y212354D01*
X111618Y212799D01*
X111535Y213307D01*
X111701Y213941D01*
X112118Y214382D01*
X112618Y214508D01*
X113118Y214445D01*
X113535Y214193D01*
X114370Y212925D01*
X114953Y212354D01*
X115787Y211976D01*
X116535Y211850D01*
Y214508D01*
G01X140000Y195000D02*
X110000D01*
Y205000D01*
X140000D01*
Y195000D01*
G01Y71500D02*
Y77500D01*
X142500Y80000D01*
Y85000D01*
X140000Y87500D01*
Y93500D01*
X180000D01*
Y71500D01*
X140000D01*
G01X145701Y103157D02*
X149283D01*
X150035Y103409D01*
X150535Y103917D01*
X150701Y104547D01*
X150535Y105181D01*
X150035Y105689D01*
X149283Y105941D01*
X145701D01*
G01X146535Y108445D02*
X146035Y108823D01*
X145783Y109268D01*
X145701Y109776D01*
X145866Y110409D01*
X146283Y110850D01*
X146783Y110976D01*
X147283Y110913D01*
X147701Y110661D01*
X148535Y109394D01*
X149118Y108823D01*
X149953Y108445D01*
X150701Y108319D01*
Y110976D01*
G01X157000Y131618D02*
X160098D01*
Y130657D01*
X159945Y130350D01*
X159736Y130161D01*
X159323Y130083D01*
X158909Y130161D01*
X158654Y130390D01*
X158496Y130657D01*
Y131618D01*
G01Y130657D02*
X157000Y130083D01*
G01X157465Y128594D02*
X157205Y128366D01*
X157051Y128098D01*
X157000Y127752D01*
X157102Y127406D01*
X157311Y127138D01*
X157673Y126949D01*
X158083Y126909D01*
X158496Y126984D01*
X158756Y127177D01*
X158961Y127445D01*
X159016Y127713D01*
X158961Y127980D01*
X158756Y128327D01*
X160098Y128213D01*
Y127177D01*
G01X138500Y142500D02*
X166500D01*
Y132500D01*
X138500D01*
Y142500D01*
G01X152000Y161618D02*
X155098D01*
Y160657D01*
X154945Y160350D01*
X154736Y160161D01*
X154323Y160083D01*
X153909Y160161D01*
X153654Y160390D01*
X153496Y160657D01*
Y161618D01*
G01Y160657D02*
X152000Y160083D01*
G01X152362Y158402D02*
X152102Y158134D01*
X152000Y157827D01*
X152102Y157524D01*
X152413Y157252D01*
X152878Y157063D01*
X153343Y156984D01*
X153909D01*
X154374Y157063D01*
X154787Y157252D01*
X154996Y157484D01*
X155098Y157752D01*
X154996Y158059D01*
X154787Y158287D01*
X154480Y158441D01*
X154067Y158520D01*
X153705Y158441D01*
X153343Y158252D01*
X153138Y158020D01*
X153083Y157752D01*
X153189Y157445D01*
X153445Y157217D01*
X153909Y156984D01*
G01X133500Y172500D02*
X161500D01*
Y162500D01*
X133500D01*
Y172500D01*
G01X200000Y211000D02*
Y205000D01*
X197500Y202500D01*
Y197500D01*
X200000Y195000D01*
Y189000D01*
X160000D01*
Y211000D01*
X200000D01*
G01X139500Y223165D02*
X142598D01*
Y222205D01*
X142445Y221898D01*
X142236Y221709D01*
X141823Y221630D01*
X141409Y221709D01*
X141154Y221937D01*
X140996Y222205D01*
Y223165D01*
G01Y222205D02*
X139500Y221630D01*
G01Y219299D02*
X142598D01*
X141980Y219760D01*
G01X139500D02*
Y218839D01*
G01X142598Y216201D02*
X142496Y216508D01*
X142236Y216736D01*
X141925Y216890D01*
X141516Y217004D01*
X141047Y217043D01*
X140583Y217004D01*
X140173Y216890D01*
X139862Y216736D01*
X139602Y216508D01*
X139500Y216201D01*
X139602Y215894D01*
X139862Y215665D01*
X140173Y215512D01*
X140583Y215398D01*
X141047Y215358D01*
X141516Y215398D01*
X141925Y215512D01*
X142236Y215665D01*
X142496Y215894D01*
X142598Y216201D01*
G01X189500Y144118D02*
X192598D01*
Y143157D01*
X192445Y142850D01*
X192236Y142661D01*
X191823Y142583D01*
X191409Y142661D01*
X191154Y142890D01*
X190996Y143157D01*
Y144118D01*
G01Y143157D02*
X189500Y142583D01*
G01Y140327D02*
X190173Y140252D01*
X190740Y140138D01*
X191256Y139984D01*
X191823Y139791D01*
X192598Y139484D01*
Y141020D01*
G01X171000Y155000D02*
X199000D01*
Y145000D01*
X171000D01*
Y155000D01*
G01X194299Y179343D02*
X190717D01*
X189965Y179091D01*
X189465Y178583D01*
X189299Y177953D01*
X189465Y177319D01*
X189965Y176811D01*
X190717Y176559D01*
X194299D01*
G01X189299Y172091D02*
X194299D01*
X190717Y174437D01*
Y171268D01*
G01X191000Y232500D02*
X219000D01*
Y222500D01*
X191000D01*
Y232500D01*
G01X237500Y125000D02*
Y100000D01*
X217500D01*
Y125000D01*
X237500D01*
G01X217000Y131618D02*
X220098D01*
Y130657D01*
X219945Y130350D01*
X219736Y130161D01*
X219323Y130083D01*
X218909Y130161D01*
X218654Y130390D01*
X218496Y130657D01*
Y131618D01*
G01Y130657D02*
X217000Y130083D01*
G01Y127752D02*
X220098D01*
X219480Y128213D01*
G01X217000D02*
Y127291D01*
G01X198500Y142500D02*
X226500D01*
Y132500D01*
X198500D01*
Y142500D01*
G01X209500Y221618D02*
X212598D01*
Y220657D01*
X212445Y220350D01*
X212236Y220161D01*
X211823Y220083D01*
X211409Y220161D01*
X211154Y220390D01*
X210996Y220657D01*
Y221618D01*
G01Y220657D02*
X209500Y220083D01*
G01Y217752D02*
X209551Y217484D01*
X209705Y217177D01*
X209965Y216984D01*
X210327Y216909D01*
X210689Y216984D01*
X210996Y217217D01*
X211154Y217559D01*
Y217945D01*
X211256Y218173D01*
X211516Y218366D01*
X211874Y218441D01*
X212236Y218327D01*
X212496Y218059D01*
X212598Y217752D01*
X212496Y217445D01*
X212236Y217177D01*
X211874Y217063D01*
X211516Y217138D01*
X211256Y217331D01*
X211154Y217559D01*
Y217945D01*
X210996Y218287D01*
X210689Y218520D01*
X210327Y218594D01*
X209965Y218520D01*
X209705Y218327D01*
X209551Y218020D01*
X209500Y217752D01*
G01X239567Y98799D02*
Y93799D01*
X237984D01*
X237476Y94051D01*
X237161Y94382D01*
X237035Y95051D01*
X237161Y95717D01*
X237539Y96134D01*
X237984Y96382D01*
X239567D01*
G01X237984D02*
X237035Y98799D01*
G01X233205D02*
Y93799D01*
X233965Y94799D01*
G01Y98799D02*
X232445D01*
G01X229496Y97799D02*
X229118Y98382D01*
X228610Y98717D01*
X228039Y98799D01*
X227535Y98717D01*
X227028Y98299D01*
X226713Y97799D01*
X226650Y97299D01*
X226776Y96717D01*
X227217Y96299D01*
X227661Y96134D01*
X228232D01*
G01X227661D02*
X227280Y95882D01*
X226965Y95465D01*
X226839Y94965D01*
X226965Y94465D01*
X227280Y94051D01*
X227850Y93799D01*
X228421Y93882D01*
X228992Y94217D01*
G01X246500Y202500D02*
X252500D01*
X255000Y200000D01*
X260000D01*
X262500Y202500D01*
X268500D01*
Y162500D01*
X246500D01*
Y202500D01*
G01X278157Y196799D02*
Y193217D01*
X278409Y192465D01*
X278917Y191965D01*
X279547Y191799D01*
X280181Y191965D01*
X280689Y192465D01*
X280941Y193217D01*
Y196799D01*
G01X283256Y192547D02*
X283634Y192134D01*
X284079Y191882D01*
X284646Y191799D01*
X285217Y191965D01*
X285661Y192299D01*
X285976Y192882D01*
X286039Y193547D01*
X285913Y194217D01*
X285598Y194634D01*
X285154Y194965D01*
X284713Y195047D01*
X284268Y194965D01*
X283697Y194634D01*
X283886Y196799D01*
X285598D01*
G01X307500Y162287D02*
X310000D01*
Y161756D01*
X309874Y161539D01*
X309709Y161382D01*
X309457Y161248D01*
X309165Y161142D01*
X308748Y161114D01*
X308335Y161142D01*
X308043Y161248D01*
X307791Y161382D01*
X307626Y161539D01*
X307500Y161756D01*
Y162287D01*
G01Y159504D02*
X310000D01*
X309500Y159823D01*
G01X307500D02*
Y159185D01*
G01X298500Y150000D02*
Y166000D01*
X306500D01*
Y150000D01*
X298500D01*
G01Y154500D02*
X306500D01*
G01X298500Y154000D02*
X306500D01*
G01X351500Y132500D02*
X323500D01*
Y142500D01*
X351500D01*
Y132500D01*
G01X333000Y141835D02*
X329902D01*
Y142795D01*
X330055Y143102D01*
X330264Y143291D01*
X330677Y143370D01*
X331091Y143291D01*
X331346Y143063D01*
X331504Y142795D01*
Y141835D01*
G01Y142795D02*
X333000Y143370D01*
G01Y145701D02*
X329902D01*
X330520Y145240D01*
G01X333000D02*
Y146161D01*
G01Y148799D02*
X329902D01*
X330520Y148339D01*
G01X333000D02*
Y149260D01*
G01X367898Y112992D02*
X368205Y113185D01*
X368413Y113413D01*
X368516Y113685D01*
X368413Y113988D01*
X368205Y114220D01*
X367898Y114449D01*
X367484Y114528D01*
X365417D01*
G01X367898Y116016D02*
X368256Y116244D01*
X368465Y116551D01*
X368516Y116898D01*
X368465Y117205D01*
X368205Y117508D01*
X367898Y117701D01*
X367587Y117740D01*
X367224Y117661D01*
X366969Y117394D01*
X366862Y117126D01*
Y116783D01*
G01Y117126D02*
X366709Y117358D01*
X366449Y117547D01*
X366142Y117626D01*
X365831Y117547D01*
X365571Y117358D01*
X365417Y117012D01*
X365469Y116665D01*
X365677Y116323D01*
G01X379016Y113110D02*
X369016D01*
Y133110D01*
X379016D01*
Y113110D01*
M02*
