G04 ================== begin FILE IDENTIFICATION RECORD ==================*
G04 Layout Name:  C:/WORK_ORCAD/allegro/PULSE MODULATION.brd*
G04 Film Name:    SoldermaskTop*
G04 File Format:  Gerber RS274X*
G04 File Origin:  Cadence Allegro 17.2-P019*
G04 Origin Date:  Tue Jul 30 16:43:50 2019*
G04 *
G04 Layer:  VIA CLASS/SOLDERMASK_TOP*
G04 Layer:  PIN/SOLDERMASK_TOP*
G04 Layer:  PACKAGE GEOMETRY/SOLDERMASK_TOP*
G04 Layer:  BOARD GEOMETRY/SOLDERMASK_TOP*
G04 *
G04 Offset:    (0.000 0.000)*
G04 Mirror:    No*
G04 Mode:      Positive*
G04 Rotation:  0*
G04 FullContactRelief:  No*
G04 UndefLineWidth:     0.000*
G04 ================== end FILE IDENTIFICATION RECORD ====================*
%FSLAX25Y25*MOIN*%
%IR0*IPPOS*OFA0.00000B0.00000*MIA0B0*SFA1.00000B1.00000*%
%ADD13C,.08*%
%ADD16R,.08X.08*%
%ADD11C,.075*%
%ADD10C,.145*%
%ADD12R,.075X.075*%
%ADD15O,.04X.06*%
%ADD14R,.04X.06*%
%LPD*%
G75*
G54D10*
X23622Y23622D03*
Y251969D03*
X370079Y23622D03*
Y251969D03*
G54D11*
X19685Y68425D03*
Y78425D03*
Y88425D03*
Y98425D03*
Y157165D03*
Y167165D03*
Y177165D03*
X75000Y57500D03*
Y87500D03*
X65000D03*
Y132500D03*
X52500Y167500D03*
X55000Y142500D03*
X65000Y152500D03*
X52500Y177500D03*
Y187500D03*
X95000Y57500D03*
X85000D03*
X95000Y87500D03*
X85000D03*
X82500Y167500D03*
Y177500D03*
Y187500D03*
Y197500D03*
X165000Y67500D03*
X155000D03*
X165000Y97500D03*
X155000D03*
X145000D03*
X165000Y185000D03*
Y215000D03*
X175000Y67500D03*
Y97500D03*
Y185000D03*
X185000D03*
X195000D03*
X175000Y215000D03*
X185000D03*
X222500Y102500D03*
Y122500D03*
X232500Y112500D03*
X242500Y167500D03*
Y177500D03*
Y187500D03*
X272500Y167500D03*
Y177500D03*
Y187500D03*
Y197500D03*
X374016Y128110D03*
Y118110D03*
G54D12*
X65000Y57500D03*
X52500Y197500D03*
X145000Y67500D03*
X195000Y215000D03*
X242500Y197500D03*
G54D13*
X65000Y117500D03*
X107500Y67500D03*
Y87500D03*
X105000Y117500D03*
X95000Y177500D03*
X122500Y67500D03*
Y107500D03*
X132500Y137500D03*
X127500Y167500D03*
X115000Y177500D03*
Y227500D03*
Y200000D03*
X135000D03*
X165000Y150000D03*
X167500Y167500D03*
X155000Y227500D03*
X192500Y137500D03*
X172500D03*
X185000Y227500D03*
X205000Y150000D03*
X225000Y227500D03*
X232500Y137500D03*
X317500D03*
X302500Y176000D03*
X357500Y137500D03*
G54D14*
X100000Y147500D03*
G54D15*
X105000D03*
X110000D03*
G54D16*
X302500Y140000D03*
M02*
